# xmcd
#
# Track frame offsets: 
#        150
#        26447
#        48015
#        69695
#        91700
#        105940
#        125627
#        145117
#        162580
#        182707
#        198832
#        217610
#        243817
#
# Disc length: 3469 seconds
#
# Revision: 6
# Processed by: cddbd v1.5.2PL0 Copyright (c) Steve Scherf et al.
# Submitted via: ExactAudioCopy v0.99pb4
#
DISCID=a00d8b0d
DTITLE=Uriah Heep - Return To Fantasy (1996 remaster with bonus tracks
DTITLE=)
DYEAR=1975
DGENRE=Hard Rock
TTITLE0=Return To Fantasy
TTITLE1=Shady Lady
TTITLE2=Devil's Daughter
TTITLE3=Beautiful Dream
TTITLE4=Prima Donna
TTITLE5=Your Turn To Remember
TTITLE6=Showdown
TTITLE7=Why Did You Go
TTITLE8=A Year Or A Day
TTITLE9=Shout It Out (b-sides to single Prima Donna)
TTITLE10=The Time Will Come (b-sides to single Return to Fantasy)
TTITLE11=Beautiful Dream (previously unleashed version)
TTITLE12=Return To Fantasy (edited version)
EXTD=YEAR: 1996
EXTT0=
EXTT1=
EXTT2=
EXTT3=
EXTT4=
EXTT5=
EXTT6=
EXTT7=
EXTT8=
EXTT9=
EXTT10=
EXTT11=
EXTT12=
PLAYORDER=
